<svg xmlns="http://www.w3.org/2000/svg" viewBox="0 0 100% 100%">

  <ellipse cx="256" cy="268.109" rx="255.781" ry="232" fill="#7e5c62"/>

  <path d="M302.719 351.445l-40.219-56a8.007 8.007 0 0 0-6.5-3.336h-.023a8.007 8.007 0 0 0-6.5 3.367l-39.781 56a7.995 7.995 0 0 0-.469 8.516l40 72a7.995 7.995 0 0 0 13.984 0l40-72a7.987 7.987 0 0 0-.492-8.547z" fill="#ffcd00"/>

  <path d="M249.476 295.477l-39.781 56a7.995 7.995 0 0 0-.469 8.516l40 72c1.37 2.474 3.954 4.009 6.773 4.088V292.109h-.023a8.005 8.005 0 0 0-6.5 3.368z" fill="#ff9100"/>

  <path d="M376.004 157.221c-53.829-7.459-101.497 23.404-119.894 69.182-18.398-45.779-66.066-76.642-119.896-69.182-49.922 6.919-89.733 48.001-95.284 98.093-7.489 67.585 45.219 124.795 111.289 124.795 41.549 0 77.757-22.652 97.077-56.259 2.989-5.2 10.639-5.2 13.628 0 19.32 33.607 55.527 56.259 97.076 56.259 66.07 0 118.779-57.211 111.289-124.796-5.552-50.092-45.363-91.174-95.285-98.092z" fill="#e6be94"/>

  <circle cx="360" cy="268.109" r="72" fill="#996459"/>

  <circle cx="152" cy="268.109" r="72" fill="#996459"/>

  <path d="M400 76.109h40c30.875 0 56-25.125 56-56 0-4.422 3.578-8 8-8s8 3.578 8 8v96c0 39.703-32.297 72-72 72h-96c-44.109 0-80 35.891-80 80 0 4.422-3.578 8-8 8s-8-3.578-8-8v-40c0-83.812 68.187-152 152-152z" fill="#996459"/>

  <path d="M112.219 76.109h-40c-30.875 0-56-25.125-56-56 0-4.422-3.578-8-8-8s-8 3.578-8 8v96c0 39.703 32.297 72 72 72h96c44.109 0 80 35.891 80 80 0 4.422 3.578 8 8 8s8-3.578 8-8v-40c0-83.812-68.188-152-152-152z" fill="#996459"/>

  <circle cx="152.219" cy="268.109" r="48" fill="#ffcd00"/>

  <circle cx="152.219" cy="268.109" r="24" fill="#5c546a"/>

  <circle cx="168.11" cy="252.219" r="16" fill="#fff"/>

  <circle cx="360" cy="268.109" r="48" fill="#ffcd00"/>

  <circle cx="360" cy="268.109" r="24" fill="#5c546a"/>

  <circle cx="375.89" cy="252.219" r="16" fill="#fff"/>

  <path d="M504.219 12.109c-4.422 0-8 3.578-8 8 0 30.875-25.125 56-56 56h-40c-67.028 0-123.954 43.663-144.109 103.999C235.954 119.772 179.028 76.109 112 76.109H72c-30.875 0-56-25.125-56-56 0-4.422-3.578-8-8-8s-8 3.578-8 8v48c0 30.928 25.072 56 56 56h56c54.303 0 101.859 28.707 128.675 71.684 3.288 5.27 9.202 8.316 15.413 8.316h.043c6.211 0 12.125-3.046 15.413-8.316 26.816-42.977 74.372-71.684 128.675-71.684h56c30.928 0 56-25.072 56-56v-48c0-4.422-3.579-8-8-8z" fill="#e6be94"/>

</svg>